{
  "source": "C:\\Users\\Peter\\Desktop\\stuff\\MIUN\\quantitative_research\\video_compression\\videos\\BVI-HD\\BVI-HD_CDVL_videos\\ORIG\\CloudsZoom_1920x1080_60fps.mp4",
  "output": "C:\\Users\\Peter\\Desktop\\stuff\\MIUN\\quantitative_research\\video_compression\\compressed_videos\\BVI-HD\\vp9\\1.5\\CloudsZoom_1920x1080_60fps_vp9.webm",
  "codec": "vp9",
  "ok": "Input #0, mov,mp4,m4a,3gp,3g2,mj2, from 'C:\\Users\\Peter\\Desktop\\stuff\\MIUN\\quantitative_research\\video_compression\\videos\\BVI-HD\\BVI-HD_CDVL_videos\\ORIG\\CloudsZoom_1920x1080_60fps.mp4':\n  Metadata:\n    major_brand     : isom\n    minor_version   : 512\n    compatible_brands: isomiso2avc1mp41\n    encoder         : Lavf54.28.101\n  Duration: 00:00:05.00, start: 0.000000, bitrate: 32589 kb/s\n  Stream #0:0[0x1](und): Video: h264 (High 4:4:4 Predictive) (avc1 / 0x31637661), yuv420p(progressive), 1920x1080, 32586 kb/s, 60 fps, 60 tbr, 60 tbn (default)\n    Metadata:\n      handler_name    : VideoHandler\n      vendor_id       : [0][0][0][0]\n[out#0/webm @ 0000026fda7d4d00] Codec AVOption b:a (set bitrate (in bits/s)) has not been used for any stream. The most likely reason is either wrong type (e.g. a video option with no video streams) or that it is a private option of some decoder which was not actually used for any stream.\nStream mapping:\n  Stream #0:0 -> #0:0 (h264 (native) -> vp9 (libvpx-vp9))\nPress [q] to stop, [?] for help\n[libvpx-vp9 @ 0000026fdab005c0] v1.15.2-100-g40561f514\nOutput #0, webm, to 'C:\\Users\\Peter\\Desktop\\stuff\\MIUN\\quantitative_research\\video_compression\\compressed_videos\\BVI-HD\\vp9\\1.5\\CloudsZoom_1920x1080_60fps_vp9.webm':\n  Metadata:\n    major_brand     : isom\n    minor_version   : 512\n    compatible_brands: isomiso2avc1mp41\n    encoder         : Lavf62.3.100\n  Stream #0:0(und): Video: vp9, yuv420p(tv, progressive), 1920x1080, q=2-31, 1500 kb/s, 60 fps, 1k tbn (default)\n    Metadata:\n      encoder         : Lavc62.11.100 libvpx-vp9\n      handler_name    : VideoHandler\n      vendor_id       : [0][0][0][0]\n    Side data:\n      cpb: bitrate max/min/avg: 0/0/0 buffer size: 1500000 vbv_delay: N/A\nframe=    9 fps=0.0 q=33.0 size=       1KiB time=00:00:00.15 bitrate=  33.8kbits/s speed=0.283x elapsed=0:00:00.53    \nframe=   19 fps= 18 q=18.0 size=       1KiB time=00:00:00.31 bitrate=  16.0kbits/s speed=0.299x elapsed=0:00:01.05    \nframe=   27 fps= 17 q=13.0 size=       1KiB time=00:00:00.45 bitrate=  11.3kbits/s speed=0.288x elapsed=0:00:01.56    \nframe=   36 fps= 17 q=11.0 size=       1KiB time=00:00:00.60 bitrate=   8.4kbits/s speed=0.287x elapsed=0:00:02.08    \nframe=   47 fps= 18 q=12.0 size=       1KiB time=00:00:00.78 bitrate=   6.5kbits/s speed= 0.3x elapsed=0:00:02.60    \nframe=   57 fps= 18 q=20.0 size=       1KiB time=00:00:00.95 bitrate=   5.3kbits/s speed=0.304x elapsed=0:00:03.12    \nframe=   66 fps= 18 q=15.0 size=       1KiB time=00:00:01.10 bitrate=   4.6kbits/s speed=0.301x elapsed=0:00:03.64    \nframe=   76 fps= 18 q=11.0 size=       1KiB time=00:00:01.26 bitrate=   4.0kbits/s speed=0.305x elapsed=0:00:04.15    \nframe=   86 fps= 18 q=24.0 size=       1KiB time=00:00:01.43 bitrate=   3.5kbits/s speed=0.306x elapsed=0:00:04.67    \nframe=   96 fps= 19 q=24.0 size=       1KiB time=00:00:01.60 bitrate=   3.2kbits/s speed=0.309x elapsed=0:00:05.18    \nframe=  108 fps= 19 q=12.0 size=       1KiB time=00:00:01.80 bitrate=   2.8kbits/s speed=0.315x elapsed=0:00:05.71    \nframe=  118 fps= 19 q=22.0 size=       1KiB time=00:00:01.96 bitrate=   2.6kbits/s speed=0.316x elapsed=0:00:06.22    \nframe=  128 fps= 19 q=12.0 size=       1KiB time=00:00:02.13 bitrate=   2.4kbits/s speed=0.315x elapsed=0:00:06.77    \nframe=  139 fps= 19 q=13.0 size=     256KiB time=00:00:02.31 bitrate= 905.2kbits/s speed=0.317x elapsed=0:00:07.30    \nframe=  149 fps= 19 q=12.0 size=     256KiB time=00:00:02.48 bitrate= 844.5kbits/s speed=0.317x elapsed=0:00:07.83    \nframe=  159 fps= 19 q=15.0 size=     256KiB time=00:00:02.65 bitrate= 791.4kbits/s speed=0.317x elapsed=0:00:08.35    \nframe=  169 fps= 19 q=22.0 size=     256KiB time=00:00:02.81 bitrate= 744.6kbits/s speed=0.317x elapsed=0:00:08.89    \nframe=  179 fps= 19 q=11.0 size=     256KiB time=00:00:02.98 bitrate= 703.0kbits/s speed=0.316x elapsed=0:00:09.43    \nframe=  189 fps= 19 q=21.0 size=     256KiB time=00:00:03.15 bitrate= 665.8kbits/s speed=0.316x elapsed=0:00:09.95    \nframe=  199 fps= 19 q=21.0 size=     256KiB time=00:00:03.31 bitrate= 632.3kbits/s speed=0.317x elapsed=0:00:10.47    \nframe=  210 fps= 19 q=23.0 size=     256KiB time=00:00:03.50 bitrate= 599.2kbits/s speed=0.319x elapsed=0:00:10.98    \nframe=  220 fps= 19 q=12.0 size=     256KiB time=00:00:03.66 bitrate= 572.0kbits/s speed=0.319x elapsed=0:00:11.50    \nframe=  230 fps= 19 q=22.0 size=     256KiB time=00:00:03.83 bitrate= 547.1kbits/s speed=0.319x elapsed=0:00:12.01    \nframe=  240 fps= 19 q=11.0 size=     256KiB time=00:00:04.00 bitrate= 524.3kbits/s speed=0.319x elapsed=0:00:12.53    \nframe=  250 fps= 19 q=22.0 size=     256KiB time=00:00:04.16 bitrate= 503.3kbits/s speed=0.319x elapsed=0:00:13.04    \nframe=  261 fps= 19 q=24.0 size=     768KiB time=00:00:04.35 bitrate=1446.3kbits/s speed=0.321x elapsed=0:00:13.57    \nframe=  272 fps= 19 q=15.0 size=     768KiB time=00:00:04.53 bitrate=1387.8kbits/s speed=0.322x elapsed=0:00:14.09    \nframe=  276 fps= 19 q=15.0 size=     768KiB time=00:00:04.60 bitrate=1367.7kbits/s speed=0.315x elapsed=0:00:14.61    \nframe=  276 fps= 18 q=15.0 size=     768KiB time=00:00:04.60 bitrate=1367.7kbits/s speed=0.304x elapsed=0:00:15.12    \n[out#0/webm @ 0000026fda7d4d00] video:1104KiB audio:0KiB subtitle:0KiB other streams:0KiB global headers:0KiB muxing overhead: 0.251398%\nframe=  300 fps= 19 q=12.0 Lsize=    1107KiB time=00:00:05.00 bitrate=1813.3kbits/s speed=0.322x elapsed=0:00:15.51    \n",
  "seconds": 15.701958179473877,
  "probe_out": {}
}